<?xml version="1.0" encoding="UTF-8"?>
<svg xmlns="http://www.w3.org/2000/svg" width="256px" height="103px" viewBox="0 0 149 60" fill="none">
  <g clip-path="url(#clip0_892_58046)">
    <path d="M145.608 53.475C144.839 51.346 144.07 49.2169 143.3 47.0879L146.705 42.8627C147.219 42.223 147.375 41.3755 147.122 40.5938C146.869 39.8142 146.246 39.2176 145.454 39.0016L140.56 37.6666L140.606 37.1215C140.612 37.0536 140.616 36.9878 140.616 36.9199V23.4709C140.616 22.9752 140.468 22.5 140.186 22.0927C139.145 20.5869 138.106 19.0874 137.068 17.5939C137.049 17.5672 137.03 17.5425 137.012 17.5178L136.265 16.5243L137.506 16.4646C137.919 16.444 138.324 16.3186 138.676 16.0985L139.478 15.5965C140.192 15.1502 140.616 14.3829 140.616 13.5416V7.06802C140.616 6.56816 140.464 6.08681 140.178 5.67745C139.731 5.03771 139.063 4.13055 138.191 2.98066C137.864 2.55074 137.571 2.16607 137.358 1.89043C136.858 1.2404 136.292 0.50192 135.095 0.50192C135.056 0.50192 135.019 0.50192 134.98 0.503977C132.131 0.639742 129.282 0.767279 126.513 0.880417C126.095 0.896873 125.688 1.02235 125.334 1.24246L124.532 1.74026C124.384 1.83283 124.244 1.94185 124.118 2.06322C123.919 2.25864 122.75 3.38796 122.75 3.38796L122.333 3.1802C121.993 3.00946 121.617 2.92101 121.245 2.92101C121.171 2.92101 121.099 2.92512 121.025 2.93129C120.111 3.01563 119.198 3.09792 118.283 3.17403C118.034 3.1946 117.787 3.25425 117.552 3.35299L117.414 3.41059L117.264 3.40236C117.211 3.4003 117.157 3.39619 117.108 3.39619H117.065C115.047 3.46201 113.031 3.52167 111.017 3.57721C110.622 3.58749 110.233 3.69652 109.89 3.88988L109.474 4.12438L109.153 3.94953C108.8 3.75823 108.403 3.65538 108.008 3.65538H107.936C106.111 3.70269 104.286 3.74589 102.46 3.78497C102.067 3.7932 101.678 3.89811 101.335 4.08941L100.543 4.52962L100.473 4.57282L100.037 4.77441L99.6971 4.47614C99.2548 4.08736 98.6871 3.87342 98.1008 3.87342H98.0535C95.4102 3.92074 92.9664 3.95982 90.5864 3.98862C90.1586 3.99479 89.7369 4.1141 89.3687 4.3342L88.6425 4.7703C88.5129 4.84846 88.3895 4.93897 88.2764 5.03977C87.8629 5.41004 87.4227 5.78031 86.9557 6.1732C86.5094 6.54964 86.0465 6.94048 85.6001 7.33749C85.0859 7.79416 84.7876 8.45036 84.7856 9.13947L84.7794 10.3963H82.6133V7.2511C82.6133 6.43651 82.2081 5.68157 81.5313 5.23108L80.8957 4.80732C80.4966 4.54196 80.0276 4.40208 79.5421 4.40208C77.3843 4.41237 75.2285 4.41648 73.0707 4.41648C72.793 4.41648 72.5214 4.4638 72.2622 4.55431L72.0421 4.63247L71.8241 4.55431C71.5649 4.4638 71.2934 4.41648 71.0198 4.41648C68.9627 4.41237 66.9057 4.4062 64.8466 4.39386H64.8219C64.1842 4.39386 63.5794 4.64482 63.1228 5.09942C62.6682 5.55197 62.4069 6.17732 62.4069 6.81912V10.3984H59.9323V7.18321C59.9323 6.33982 59.4839 5.5458 58.7618 5.10971L58.0439 4.67567C57.6736 4.45145 57.2499 4.33009 56.8159 4.32597C54.5161 4.29923 52.2122 4.26632 49.9679 4.22724H49.9247C49.285 4.22724 48.6823 4.47408 48.2256 4.92252C47.8533 5.28867 47.6147 5.75768 47.5324 6.28017L47.4912 6.54347L46.3146 6.60518L46.2467 6.346C46.0863 5.73917 45.7078 5.2249 45.1791 4.89989L44.4592 4.45557C44.091 4.22929 43.6693 4.10381 43.2393 4.09558C41.3489 4.05444 39.4585 4.00919 37.566 3.95982L37.0456 3.94542L36.9386 3.43527C36.8049 2.79347 36.4161 2.22778 35.871 1.8822L35.1037 1.39468C34.7355 1.16223 34.3117 1.03058 33.8777 1.01824C31.1686 0.9339 28.5109 0.845447 25.9745 0.750823C25.9437 0.750823 25.9128 0.750823 25.882 0.750823C25.5343 0.750823 25.197 0.824877 24.8781 0.970927L24.5757 1.10875L24.2857 0.9483C23.9566 0.767279 23.5842 0.66237 23.2078 0.64797C21.8748 0.596544 20.5377 0.541004 19.2048 0.485464C19.1719 0.485464 19.1369 0.485464 19.104 0.485464C18.8119 0.485464 18.528 0.53689 18.2585 0.635628L17.9993 0.732309L17.7484 0.615058C17.4563 0.477235 17.1436 0.401125 16.8227 0.386725C14.128 0.259188 11.4374 0.133708 8.83107 0.0041141C8.78993 0.0041141 8.74879 0 8.70765 0C8.08437 0 7.49194 0.236561 7.03938 0.668541C6.56009 1.12315 6.2865 1.76495 6.2865 2.42526V10.4909C6.2865 11.3055 6.69174 12.0605 7.37057 12.511L8.13579 13.0191C8.18516 13.052 8.23453 13.0828 8.28596 13.1116L8.56983 13.2721L8.61303 13.595C9.35768 19.0195 10.1106 23.9605 10.8408 28.7514L11.7644 34.8485L11.9701 36.2329L1.7898 38.9996C0.973147 39.2217 0.341633 39.8389 0.100958 40.6514C-0.139716 41.4639 0.0536463 42.3238 0.619335 42.9553L4.38579 47.1661L1.54089 55.0651C1.22616 55.9394 1.44421 56.9309 2.09835 57.5912C2.5509 58.0479 3.1783 58.3112 3.82216 58.3112C4.09369 58.3112 4.36111 58.2659 4.61824 58.1775L18.3244 53.4113L18.5465 54.0202C18.7111 54.4727 19.0032 54.8615 19.3899 55.1474C19.8095 55.456 20.3053 55.6185 20.8257 55.6185C21.0726 55.6185 21.3153 55.5815 21.5498 55.5074C38.3148 50.2537 55.849 47.5878 73.6672 47.5878C91.4854 47.5878 109.02 50.2516 125.783 55.5074C126.017 55.5815 126.262 55.6185 126.507 55.6185C127.027 55.6185 127.523 55.456 127.942 55.1474C128.331 54.8615 128.625 54.4686 128.788 54.0099L129.006 53.401L143.121 58.1836C143.372 58.268 143.634 58.3112 143.899 58.3112C144.547 58.3112 145.178 58.0458 145.631 57.583C145.666 57.5459 145.695 57.5069 145.728 57.4678C146.433 57.4575 145.909 57.4472 146.614 57.4369C147.742 57.3073 148.534 56.285 148.406 55.24C148.291 54.2937 147.449 53.5347 146.429 53.5182C145.744 53.5018 146.289 53.4874 145.604 53.4709L145.608 53.475Z" fill="white"></path>
    <path d="M144.814 41.3405L138.645 39.6558L135.613 42.0502C135.249 42.3361 134.595 42.4493 134.157 42.3012L128.07 40.2338V50.5252L143.903 55.888L140.556 46.6271L144.816 41.3385L144.814 41.3405Z" fill="#252159"></path>
    <path d="M14.1896 42.0954C13.7432 42.2189 13.3256 41.9453 13.2577 41.4886L12.8237 38.5162L2.42529 41.3426L7.15651 46.6312L3.82203 55.89L19.2458 50.5273V40.7028L14.1896 42.0954Z" fill="#252159"></path>
    <path d="M81.7822 14.4117L83.0411 16.9233L85.8531 17.3245L83.8146 19.2787L84.2959 22.0372L81.7822 20.7351L79.2685 22.0372L79.7457 19.2787L77.7134 17.3245L80.5254 16.9233L81.7822 14.4117Z" fill="#252159"></path>
    <path d="M48.9166 27.1201C48.7047 27.1366 48.4928 27.1551 48.283 27.1716C46.8431 20.4676 45.3476 13.6979 43.9118 6.96106L43.1918 6.51674C41.2253 6.47354 39.2587 6.42829 37.2901 6.37686C36.3171 13.772 35.3462 21.1814 34.3732 28.6074C34.0071 28.6712 33.6409 28.7329 33.2727 28.7966C33.2727 30.1975 33.2727 31.5983 33.2727 32.9971L33.9104 33.4353C36.1443 33.0074 38.3783 32.5816 40.6123 32.1558C40.6123 30.9319 40.6123 29.712 40.6123 28.4881L39.9766 28.052C39.7483 28.0849 39.522 28.1178 39.2937 28.1507C39.3924 27.0893 39.4932 26.0299 39.592 24.9705C40.6863 24.8965 41.7827 24.8224 42.8791 24.7484C43.056 25.5218 43.3975 27.0296 43.5024 27.5501C43.3296 27.6221 42.1427 27.8257 42.1427 27.8257V31.3391L42.7804 31.7752C45.037 31.477 47.2936 31.1787 49.5501 30.8804C49.5501 29.7717 49.5501 28.6629 49.5501 27.5542L48.9166 27.1201ZM41.8959 20.9264C41.3548 20.9696 40.8159 21.0128 40.2749 21.058C40.4888 19.3918 40.7048 17.7421 40.9208 16.0964C41.2458 17.7133 41.5688 19.3322 41.8959 20.9284V20.9264Z" fill="#252159"></path>
    <path d="M34.5769 3.9269L33.8096 3.43938C31.1704 3.35709 28.5312 3.26864 25.8941 3.17196V9.29168L26.6613 9.78331C26.8424 9.7792 27.0254 9.77509 27.2065 9.76892C26.8876 13.1116 26.5688 16.4564 26.2479 19.8053C25.4621 14.4034 24.6763 8.99546 23.8884 3.56691L23.1212 3.06911C21.7841 3.01768 20.447 2.96214 19.1099 2.9066C19.1099 2.90249 18.3097 14.5577 17.635 22.0042C17.1454 18.1514 16.5633 13.4881 16.1683 10.3984C16.5551 10.3675 17.491 10.3181 17.491 10.3181C17.491 7.98134 17.491 5.64453 17.491 3.30772L16.7237 2.80375C14.0516 2.6865 11.3816 2.56102 8.70947 2.42731V10.493L9.47264 11.0011C9.47264 11.0011 10.1165 10.9517 10.6945 10.9044C12.0995 21.4571 13.5106 29.8293 14.9341 39.7669C14.93 39.8697 15.6993 40.24 15.6993 40.24C17.3326 39.6208 18.9762 39.0428 20.6218 38.5038C21.1464 33.713 21.6751 30.4258 22.1996 26.2027C22.8681 29.6359 23.4421 31.9542 24.1744 35.9325L24.9416 36.4036C26.5996 35.9325 28.2638 35.4964 29.932 35.0912C30.8577 25.458 32.9703 9.59407 32.9703 9.60024C33.5051 9.58584 34.04 9.57144 34.5769 9.5591C34.5769 7.68307 34.5769 5.80704 34.5769 3.93101V3.9269Z" fill="#252159"></path>
    <path d="M110.283 6.45502V11.4331C110.653 11.4413 111.027 11.4495 111.399 11.4578C111.399 11.4578 111.379 14.8375 111.36 17.958C109.923 12.7229 107.997 6.08064 107.997 6.0827C106.17 6.13001 104.34 6.17115 102.513 6.21024L101.711 6.65662V11.1307C102.135 11.1307 102.558 11.1328 102.984 11.1328C102.945 16.7197 102.908 22.3066 102.871 27.8936C102.752 27.8792 102.63 27.8648 102.511 27.8504L101.709 28.2885C101.709 29.3459 101.709 30.4052 101.709 31.4646C103.753 31.8184 105.8 32.1743 107.843 32.5302L108.645 32.0941C108.655 30.936 108.666 29.7758 108.678 28.6197C108.304 28.5621 107.929 28.5045 107.553 28.4469C107.567 26.3302 107.582 24.2115 107.596 22.0948C108.713 25.7872 109.832 29.4816 110.949 33.1925C112.325 33.534 113.703 33.8734 115.08 34.2149L115.882 33.7767C115.925 26.3858 115.97 18.9948 116.013 11.6018C116.122 11.6059 116.234 11.61 116.343 11.6141L117.145 11.1574C117.145 9.37809 117.145 7.59874 117.147 5.8194C115.127 5.88522 113.107 5.94488 111.087 6.00042L110.285 6.45297L110.283 6.45502Z" fill="#252159"></path>
    <path d="M137.39 14.0414L138.193 13.5395V7.06595C137.162 5.59516 135.099 2.92305 135.099 2.92511C132.272 3.06088 129.444 3.18636 126.616 3.30155L125.813 3.79936C124.692 4.89165 123.571 5.97777 122.448 7.05772C122.448 11.5421 122.448 16.0285 122.448 20.5129C123.54 21.9117 124.631 23.3146 125.723 24.7216C127.977 25.1515 130.234 25.5856 132.488 26.0196C132.484 27.9861 132.48 29.9547 132.476 31.9213C131.071 31.5407 129.668 31.1622 128.263 30.7837C128.267 29.7963 128.269 28.8069 128.274 27.8195C126.599 27.478 124.925 27.1366 123.25 26.7972L122.448 27.2723C122.448 29.1607 122.448 31.047 122.448 32.9354C123.52 34.4514 124.591 35.9716 125.663 37.4959C128.527 38.4359 131.39 39.3863 134.251 40.3449L135.054 39.8759C136.103 38.8926 137.15 37.9073 138.199 36.9178V23.4689C137.16 21.9652 136.123 20.4676 135.084 18.9763C132.83 18.6574 130.575 18.3386 128.321 18.0197C128.331 15.3847 128.339 12.7516 128.35 10.1166C129.742 10.203 131.133 10.2893 132.525 10.3757C132.521 11.4104 132.519 12.4431 132.517 13.4757C134.144 13.665 135.769 13.8542 137.397 14.0414H137.39Z" fill="#252159"></path>
    <path d="M59.0743 24.6496V26.3199C58.1445 26.3919 57.2168 26.466 56.289 26.538C56.289 21.492 56.289 16.4482 56.289 11.4022C56.6963 11.3919 57.1057 11.3796 57.515 11.3693C57.515 9.97462 57.515 8.57789 57.515 7.18115L56.7971 6.74711C54.5097 6.72037 52.2223 6.68746 49.9348 6.64838C49.9348 8.08214 49.9348 9.52002 49.9348 10.9538L50.6507 11.3919C50.8667 11.3919 51.0847 11.3919 51.3028 11.3919C51.3028 16.5551 51.3028 21.7204 51.3028 26.8877C50.9963 26.9206 50.6897 26.9535 50.3832 26.9885C50.3832 28.0664 50.3832 29.1463 50.3832 30.2242L51.097 30.6562C55.4621 30.3456 59.8272 30.0308 64.1922 29.7099V24.9232L63.4784 24.4974C62.0117 24.5509 60.543 24.6044 59.0763 24.6558L59.0743 24.6496Z" fill="#252159"></path>
    <path d="M79.3693 26.3775C77.8697 23.3989 76.3433 20.3216 74.8479 17.3533C76.224 15.2777 77.4809 13.3214 78.8591 11.2418C79.2541 11.2376 79.7992 11.2335 80.1921 11.2294V7.25108L79.5565 6.82733C77.3966 6.83762 75.2346 6.84173 73.0747 6.84173V10.8591C73.2845 10.8591 73.4964 10.8591 73.7083 10.8591V11.2829H73.7288C72.6715 12.9039 71.6121 14.5248 70.5548 16.1458V11.3035C70.923 11.3014 71.2892 11.2994 71.6574 11.2973V7.26548L71.0218 6.83967C68.9627 6.83556 66.9015 6.82939 64.8403 6.81705V10.9023L65.476 11.3323C65.6734 11.3323 65.8709 11.3323 66.0684 11.3302C66.0684 16.3494 66.0684 21.3686 66.0684 26.3878C65.659 26.3981 65.2497 26.4084 64.8403 26.4187V29.1957L65.476 29.6235C67.7079 29.5783 69.9418 29.533 72.1737 29.4857V26.7334L71.5381 26.3076C71.211 26.3096 70.8839 26.3117 70.5589 26.3138C70.5651 25.5341 70.5816 24.6496 70.5816 23.9194C71.1719 22.9875 71.7458 22.0824 72.3321 21.1567C73.2002 22.8723 74.0703 24.5858 74.9384 26.3014C74.5969 26.3014 74.2554 26.3014 73.914 26.3014V29.0537L74.5496 29.4796C76.5244 29.5248 78.5012 29.568 80.478 29.6112C80.478 28.6794 80.478 27.7455 80.478 26.8157L79.8383 26.3919C79.6819 26.3878 79.5256 26.3816 79.3693 26.3775Z" fill="#252159"></path>
    <path d="M90.6171 6.41388L89.891 6.84998C89.0291 7.61931 88.0746 8.38454 87.2107 9.14976C87.1819 15.2921 87.1531 21.4365 87.1243 27.5789C87.9738 28.5292 88.916 29.4796 89.7635 30.432C92.2443 30.6768 94.7251 30.9236 97.2059 31.1664L97.9299 30.7323C98.7918 29.8992 99.6517 29.064 100.512 28.2268C100.561 21.669 100.61 15.1111 100.66 8.55116C99.808 7.79828 98.9523 7.04745 98.0986 6.29663C95.6055 6.34189 93.1123 6.38097 90.6192 6.41183L90.6171 6.41388ZM92.8038 26.3734C92.6248 26.1513 92.4438 25.927 92.2628 25.7049C92.2833 20.8852 92.3039 16.0656 92.3265 11.2459C93.2934 11.2335 94.2581 11.2233 95.2249 11.2089C95.2805 11.2603 95.3339 11.3138 95.3895 11.3673C95.3545 16.4585 95.3195 21.5496 95.2866 26.6408C94.4597 26.5524 93.6307 26.4639 92.8017 26.3734H92.8038Z" fill="#252159"></path>
    <path d="M118.066 5.96749C118.066 6.61546 118.066 7.26549 118.066 7.91346C118.41 7.88878 118.755 7.86615 119.099 7.84146C119.095 8.18088 119.072 8.40715 119.033 8.53058C119.033 8.53263 119.031 8.53469 119.029 8.53675C118.885 8.5964 118.714 8.64166 118.486 8.65606C118.346 8.77948 118.208 8.9029 118.066 9.02633C118.066 9.37602 118.066 9.72572 118.066 10.0734C118.776 10.0343 119.286 9.96434 119.597 9.86354C119.905 9.76275 120.167 9.59613 120.376 9.36574C120.401 9.339 120.42 9.31226 120.444 9.28551C120.572 9.20323 120.689 9.10449 120.794 8.98724C121.008 8.75891 121.137 8.52852 121.183 8.29813C121.228 8.06774 121.249 7.65016 121.249 7.04127C121.249 6.47558 121.249 5.9099 121.249 5.34421C120.327 5.4306 119.405 5.51083 118.484 5.589C118.344 5.71448 118.204 5.84201 118.064 5.96749H118.066Z" fill="#252159"></path>
    <path d="M33.8096 3.43939C33.8096 5.31747 33.8096 7.1935 33.8096 9.07159C33.2747 9.08599 32.7399 9.09833 32.2051 9.11067C32.2051 9.1045 30.0925 24.9787 29.1668 34.6181C27.5006 35.0213 25.8344 35.4574 24.1744 35.9284C23.2651 30.9956 22.6028 28.6177 21.6997 23.4956C21.0867 28.883 20.4717 32.4232 19.8546 38.0266C18.2089 38.5656 16.5674 39.1415 14.9341 39.7607C13.4839 29.6441 12.046 21.1547 10.6184 10.3284C10.0959 10.384 8.70947 10.4868 8.70947 10.4868V2.42526C11.3795 2.55897 14.0516 2.68445 16.7237 2.8017C16.7237 5.14057 16.7237 7.47737 16.7237 9.8183C16.7237 9.8183 15.7898 9.86767 15.4031 9.89646C15.9338 14.0558 16.8019 21.0683 17.3326 25.1248C18.0402 18.4785 19.1099 2.90044 19.1099 2.90455C20.447 2.9601 21.7841 3.01564 23.1212 3.06706C24.0715 9.62699 25.0219 16.1663 25.9722 22.6872C26.4001 18.2049 26.8259 13.7287 27.2538 9.25672C26.8012 9.26906 26.3466 9.27935 25.892 9.29169V3.17197C28.5312 3.26865 31.1683 3.35916 33.8075 3.43939H33.8096Z" fill="#E41E2D"></path>
    <path d="M42.1448 31.3392V27.8257C42.1448 27.8257 43.3337 27.6241 43.5045 27.5501C43.3584 26.8404 42.7722 24.2773 42.7722 24.2773C41.5009 24.3637 40.2296 24.448 38.9563 24.5324C38.8411 25.7707 38.7218 27.0111 38.6066 28.2515C39.0633 28.1857 39.52 28.1199 39.9766 28.054C39.9766 29.2759 39.9766 30.4999 39.9766 31.7218C37.7427 32.1455 35.5067 32.5713 33.2727 32.9971C33.2727 31.5963 33.2727 30.1975 33.2727 28.7966C33.6389 28.7329 34.005 28.6712 34.3732 28.6074C35.3462 21.1794 36.3171 13.7699 37.2901 6.37686C39.2567 6.42829 41.2253 6.4756 43.1918 6.51674C44.6667 13.4408 46.1395 20.3422 47.6145 27.2251C48.0485 27.1901 48.4825 27.1551 48.9166 27.1201C48.9166 28.2289 48.9166 29.3397 48.9166 30.4485C46.66 30.7467 44.4034 31.0429 42.1448 31.3371V31.3392ZM39.5734 21.1136C40.3469 21.0477 41.1183 20.986 41.8938 20.9264C41.4248 18.6389 40.964 16.3309 40.495 14.0044C40.1864 16.3556 39.8758 18.7253 39.5734 21.1136Z" fill="#E41E2D"></path>
    <path d="M50.3812 30.2201C50.3812 29.1422 50.3812 28.0623 50.3812 26.9844C50.6877 26.9514 50.9942 26.9165 51.3007 26.8836C51.3007 21.5723 51.3007 16.261 51.3007 10.9497C50.844 10.9497 50.3894 10.9517 49.9348 10.9538C49.9348 9.51796 49.9348 8.08214 49.9348 6.64838C52.2223 6.68746 54.5097 6.72037 56.7971 6.74711C56.7971 8.14385 56.7971 9.53853 56.7971 10.9353C56.3898 10.9476 55.9825 10.9579 55.5752 10.9682C55.5752 16.1766 55.5752 21.3871 55.5752 26.5956C56.7436 26.5051 57.91 26.4146 59.0763 26.322V24.6517C60.543 24.6002 62.0117 24.5468 63.4784 24.4933V29.278C59.1134 29.5989 54.7483 29.9115 50.3832 30.2222L50.3812 30.2201Z" fill="#E41E2D"></path>
    <path d="M79.5562 10.8057C79.1633 10.8098 78.7704 10.8119 78.3754 10.816C76.9993 12.8956 75.6231 14.9733 74.2449 17.0488C75.8082 20.155 77.3716 23.2591 78.935 26.3631C79.2353 26.3734 79.5356 26.3837 79.8339 26.3919V29.1875C77.8591 29.1443 75.8823 29.099 73.9075 29.0538V26.3014C74.249 26.3014 74.5905 26.3014 74.9319 26.3014C73.9466 24.3555 72.9592 22.4095 71.9739 20.4635C71.2889 21.5497 70.6018 22.6337 69.9148 23.7178C69.9148 24.5838 69.9148 25.4498 69.9148 26.3179C70.4537 26.3158 70.9947 26.3117 71.5337 26.3097V29.0599C69.3018 29.1072 67.0699 29.1525 64.8359 29.1978V26.4207C65.2453 26.4105 65.6546 26.4002 66.064 26.3899C66.064 21.2267 66.064 16.0635 66.064 10.9003C65.6546 10.9003 65.2453 10.9024 64.8359 10.9044V6.81912C66.8971 6.83146 68.9583 6.83969 71.0174 6.84175V10.8736C70.6512 10.8777 70.283 10.8777 69.9148 10.8797V17.1229C71.2766 15.037 72.6383 12.9512 74.0001 10.8612C73.6895 10.8612 73.3809 10.8612 73.0703 10.8592V6.84175C75.2302 6.84175 77.3922 6.83764 79.5521 6.82735V10.8057H79.5562Z" fill="#E41E2D"></path>
    <path d="M98.0966 6.29869C95.6034 6.34394 93.1103 6.38303 90.6171 6.41388C89.7532 7.18322 88.8892 7.9505 88.0273 8.71572C87.9965 14.8601 87.9697 21.0045 87.9409 27.1489C88.7905 28.0993 89.64 29.0496 90.4875 30.0021C92.9683 30.2469 95.4491 30.4896 97.9279 30.7323C98.7898 29.8992 99.6496 29.064 100.509 28.2268C100.559 21.669 100.608 15.1111 100.658 8.55116C99.806 7.79828 98.9502 7.04745 98.0966 6.29663V6.29869ZM96.0066 26.5935C95.9716 26.6326 95.9367 26.6696 95.9017 26.7067C94.8691 26.5956 93.8344 26.4845 92.8017 26.3734C92.6228 26.1513 92.4417 25.927 92.2607 25.7049C92.2833 20.8029 92.3039 15.8989 92.3265 10.9949C92.3862 10.9353 92.4479 10.8736 92.5096 10.8139C93.6554 10.7995 94.8032 10.7851 95.9511 10.7687C96.0045 10.8221 96.058 10.8756 96.1115 10.9291C96.0765 16.1499 96.0416 21.3727 96.0066 26.5935Z" fill="#E41E2D"></path>
    <path d="M111.747 32.7544C110.367 28.1754 108.991 23.6108 107.612 19.0606C107.592 22.1894 107.569 25.3182 107.549 28.4449C107.923 28.5025 108.299 28.5601 108.674 28.6177C108.662 29.7758 108.651 30.9339 108.641 32.092C106.596 31.7362 104.552 31.3823 102.507 31.0285V27.8504C102.894 27.8956 103.282 27.9409 103.669 27.9862C103.71 22.2182 103.749 16.4523 103.788 10.6864H102.511C102.511 9.19501 102.511 7.7016 102.511 6.21024C104.34 6.17115 106.168 6.12795 107.995 6.0827C107.995 6.07858 110.76 15.6274 112.138 20.8503C112.159 17.5693 112.198 11.0032 112.198 11.0032C111.825 10.9949 111.453 10.9888 111.079 10.9805C111.079 9.32049 111.079 7.66046 111.079 6.00042C113.099 5.94488 115.119 5.88522 117.139 5.8194C117.137 7.59874 117.137 9.37809 117.137 11.1574C116.76 11.143 116.384 11.1286 116.007 11.1142C115.962 18.6677 115.917 26.2212 115.874 33.7747C114.497 33.4332 113.119 33.0917 111.743 32.7523L111.747 32.7544Z" fill="#E41E2D"></path>
    <path d="M138.192 36.9199C137.143 37.9094 136.096 38.8947 135.047 39.878C132.186 38.9194 129.322 37.9711 126.459 37.031C125.387 35.5047 124.318 33.9825 123.246 32.4644C123.246 30.576 123.246 28.6876 123.246 26.7992C124.92 27.1387 126.595 27.4801 128.269 27.8216C128.267 28.809 128.263 29.7984 128.259 30.7858C129.931 31.2342 131.602 31.6868 133.274 32.1394C133.278 29.9383 133.282 27.7373 133.286 25.5362C131.032 25.1042 128.775 24.6702 126.521 24.2403C125.428 22.8333 124.338 21.4304 123.248 20.0336C123.248 15.5451 123.248 11.0567 123.248 6.56817C124.369 5.48411 125.492 4.39593 126.613 3.30158C129.442 3.18639 132.27 3.06091 135.097 2.92514C135.097 2.92514 137.162 5.59313 138.19 7.06598V13.5395C136.563 13.3523 134.938 13.1651 133.311 12.9759C133.313 11.9412 133.315 10.9085 133.317 9.87385C131.661 9.77306 130.003 9.67226 128.343 9.57147C128.333 12.3876 128.323 15.2037 128.312 18.0198C130.567 18.3386 132.821 18.6575 135.076 18.9763C136.113 20.4677 137.151 21.9652 138.19 23.4689V36.9179L138.192 36.9199Z" fill="#E41E2D"></path>
    <path d="M118.484 9.70516V8.65401C118.78 8.6355 119.004 8.5779 119.159 8.48122C119.313 8.38042 119.41 8.2714 119.447 8.15415C119.488 8.03073 119.51 7.80239 119.514 7.46504C119.171 7.49178 118.827 7.51646 118.486 7.54115V5.58695C119.408 5.51084 120.329 5.42856 121.251 5.34216C121.251 5.90785 121.251 6.47354 121.251 7.03923C121.251 7.64606 121.23 8.0657 121.185 8.29609C121.14 8.52648 121.01 8.75892 120.796 8.9852C120.584 9.21764 120.327 9.38426 120.016 9.48712C119.706 9.58997 119.194 9.66197 118.488 9.70311L118.484 9.70516Z" fill="#E41E2D"></path>
    <path d="M53.79 38.5779C53.7447 38.5532 53.6974 38.5367 53.6501 38.5326C53.6028 38.5285 53.5658 38.5265 53.537 38.5285C52.638 38.6211 52.1896 38.6705 51.2927 38.7754V39.6105C52.1896 39.5077 52.638 39.4583 53.537 39.3637C53.5575 39.3616 53.5904 39.3513 53.6378 39.3349C53.6851 39.3184 53.7303 39.2917 53.7776 39.2547C53.8249 39.2176 53.8661 39.1703 53.9011 39.1127C53.936 39.0551 53.9545 38.9831 53.9545 38.9008C53.9545 38.8186 53.9381 38.7445 53.9072 38.6931C53.8764 38.6417 53.8373 38.6046 53.792 38.5779H53.79Z" fill="#252159"></path>
    <path d="M72.9286 38.907C72.8854 38.8823 72.8401 38.8679 72.7949 38.8597C72.7496 38.8535 72.7126 38.8494 72.6838 38.8494C71.7088 38.8556 71.2212 38.8638 70.2441 38.8823V39.6126C71.2192 39.5941 71.7067 39.5879 72.6838 39.5797C72.7044 39.5797 72.7373 39.5756 72.7805 39.5694C72.8237 39.5612 72.8689 39.5468 72.9142 39.5221C72.9594 39.4974 73.0006 39.4604 73.0356 39.411C73.0705 39.3616 73.089 39.2979 73.089 39.2156C73.089 39.1333 73.0726 39.0654 73.0417 39.016C73.0109 38.9667 72.9718 38.9317 72.9286 38.907Z" fill="#252159"></path>
    <path d="M72.9286 37.4918C72.8854 37.4691 72.8401 37.4548 72.7949 37.4486C72.7496 37.4424 72.7126 37.4383 72.6838 37.4383C71.7088 37.4445 71.2212 37.4527 70.2441 37.4712V38.2015C71.2192 38.1829 71.7067 38.1768 72.6838 38.1685C72.7044 38.1685 72.7373 38.1644 72.7805 38.1583C72.8237 38.15 72.8689 38.1336 72.9142 38.1068C72.9594 38.0801 73.0006 38.0431 73.0356 37.9937C73.0705 37.9443 73.089 37.8806 73.089 37.7983C73.089 37.716 73.0726 37.6481 73.0417 37.5987C73.0109 37.5494 72.9718 37.5144 72.9286 37.4918Z" fill="#252159"></path>
    <path d="M42.6202 40.0487C42.5749 40.0261 42.5297 40.0137 42.4824 40.0117C42.4351 40.0096 42.398 40.0096 42.3692 40.0137C41.4765 40.1577 41.0301 40.2338 40.1394 40.3881V41.2233C41.0301 41.069 41.4765 40.9929 42.3692 40.8489C42.3898 40.8448 42.4227 40.8345 42.468 40.8139C42.5132 40.7933 42.5585 40.7645 42.6058 40.7255C42.6531 40.6864 42.6943 40.637 42.7292 40.5774C42.7642 40.5177 42.7807 40.4457 42.7807 40.3614C42.7807 40.277 42.7642 40.205 42.7333 40.1557C42.7025 40.1063 42.6634 40.0713 42.6181 40.0487H42.6202Z" fill="#252159"></path>
    <path d="M48.059 39.3966C47.9356 39.304 47.7793 39.2403 47.5921 39.2012C47.4049 39.1642 47.1868 39.1621 46.94 39.195C46.6911 39.23 46.4751 39.2917 46.2879 39.3802C46.1007 39.4707 45.9464 39.5776 45.821 39.7031C45.6975 39.8286 45.605 39.9685 45.5433 40.1186C45.4815 40.2688 45.4507 40.4231 45.4507 40.5815C45.4507 40.7399 45.4815 40.8839 45.5433 41.0176C45.605 41.1513 45.6975 41.2623 45.821 41.3529C45.9444 41.4434 46.1007 41.5071 46.2879 41.5442C46.4751 41.5812 46.6931 41.5812 46.94 41.5462C47.1889 41.5113 47.4049 41.4516 47.5921 41.3631C47.7793 41.2747 47.9356 41.1677 48.059 41.0443C48.1824 40.9188 48.275 40.7831 48.3367 40.6329C48.3984 40.4827 48.4293 40.3284 48.4293 40.1721C48.4293 40.0158 48.3984 39.8697 48.3367 39.736C48.275 39.6023 48.1824 39.4892 48.059 39.3966Z" fill="#252159"></path>
    <path d="M90.8642 38.2405C90.8189 38.2076 90.7716 38.1829 90.7243 38.1685C90.677 38.1541 90.6399 38.1459 90.6111 38.1438C89.7122 38.0698 89.2617 38.0348 88.3628 37.969V38.8042C89.2617 38.8679 89.7122 38.9029 90.6111 38.979C90.6317 38.979 90.6646 38.979 90.7119 38.9687C90.7572 38.9605 90.8045 38.942 90.8518 38.9152C90.8991 38.8885 90.9403 38.8474 90.9752 38.798C91.0102 38.7466 91.0287 38.6787 91.0287 38.5943C91.0287 38.51 91.0123 38.4339 90.9814 38.3783C90.9506 38.3208 90.9115 38.2755 90.8662 38.2426L90.8642 38.2405Z" fill="#252159"></path>
    <path d="M20.8257 39.557V53.1953C54.985 42.4883 92.3534 42.4883 126.509 53.1953V39.557C92.3534 28.8522 54.983 28.8522 20.8257 39.557ZM38.1357 42.9573C38.0391 43.1363 37.8889 43.305 37.6873 43.4634C37.4857 43.6218 37.2348 43.7637 36.9324 43.8892C36.63 44.0147 36.2721 44.1175 35.8607 44.1998C35.6488 44.2409 35.4307 44.2656 35.2106 44.2759C35.0214 44.2841 34.8095 44.2841 34.5812 44.2718C34.3528 44.2595 34.1307 44.2183 33.9167 44.1504C34.0443 43.8295 34.106 43.6691 34.2335 43.3502C34.4248 43.4099 34.6161 43.4469 34.8074 43.4613C34.9988 43.4757 35.1736 43.4819 35.3299 43.4737C35.513 43.4654 35.692 43.4469 35.8607 43.4161C36.377 43.3194 36.7699 43.1918 37.0249 43.0499C37.28 42.9059 37.4076 42.7578 37.4076 42.6056C37.4076 42.5069 37.3664 42.4431 37.2882 42.4122C37.208 42.3814 37.0825 42.3834 36.918 42.404C36.881 42.4081 36.8069 42.4163 36.702 42.4328C36.5971 42.4472 36.4675 42.4657 36.3132 42.4883C36.161 42.511 35.9902 42.5377 35.8031 42.5665C35.6159 42.5953 35.4204 42.6262 35.2209 42.655C35.0193 42.6838 34.8342 42.694 34.6676 42.6817C34.5009 42.6694 34.3549 42.6344 34.2315 42.5747C34.108 42.5151 34.0114 42.4287 33.9435 42.3197C33.8756 42.2106 33.8386 42.0708 33.8386 41.9021C33.8386 41.7334 33.8941 41.5647 34.0031 41.394C34.1122 41.2233 34.2685 41.0607 34.4701 40.9085C34.6737 40.7563 34.9185 40.6205 35.2086 40.4992C35.4986 40.3778 35.8216 40.2832 36.1795 40.2132C36.3914 40.1721 36.6074 40.1454 36.8254 40.1351C37.0126 40.1268 37.2224 40.1268 37.4528 40.1351C37.6832 40.1433 37.9095 40.1803 38.1275 40.24C38.0164 40.5506 37.9609 40.7049 37.8519 41.0155C37.7449 40.9908 37.6235 40.9682 37.4878 40.9517C37.352 40.9353 37.2101 40.925 37.064 40.9209C36.918 40.9168 36.7678 40.9209 36.6156 40.9332C36.4654 40.9456 36.3194 40.9641 36.1816 40.9908C35.9738 41.0319 35.7804 41.0793 35.6015 41.1327C35.4225 41.1883 35.2682 41.2479 35.1366 41.3117C35.0049 41.3775 34.9021 41.4454 34.828 41.5154C34.754 41.5874 34.7169 41.6573 34.7169 41.7272C34.7169 41.8177 34.756 41.8794 34.8321 41.9082C34.9082 41.9391 35.0214 41.9412 35.1695 41.9185C35.3361 41.8918 35.5706 41.8568 35.8709 41.8116C36.1733 41.7663 36.5313 41.7108 36.9427 41.6511C37.1504 41.6203 37.3376 41.6141 37.5022 41.6285C37.6667 41.6429 37.8087 41.682 37.9239 41.7437C38.0411 41.8054 38.1296 41.8939 38.1933 42.0029C38.2551 42.114 38.288 42.2477 38.288 42.4061C38.288 42.5891 38.2386 42.7681 38.1419 42.9471L38.1357 42.9573ZM43.5664 40.8365C43.4758 41.0093 43.3668 41.1492 43.2393 41.2603C43.1117 41.3714 42.9801 41.4557 42.8443 41.5112C42.7086 41.5688 42.5954 41.6038 42.5049 41.6182C41.5566 41.7704 41.0835 41.8507 40.1393 42.0152C40.1393 42.5171 40.1393 42.7681 40.1393 43.27C39.7711 43.3338 39.588 43.3667 39.2198 43.4325C39.2198 41.9617 39.2198 41.2274 39.2198 39.7566C40.5322 39.5221 41.1905 39.411 42.5049 39.1991C42.6016 39.1827 42.7209 39.1827 42.8587 39.195C42.9966 39.2073 43.1282 39.2485 43.2537 39.3184C43.3792 39.3884 43.4861 39.4933 43.5725 39.6352C43.6589 39.7771 43.7042 39.9705 43.7042 40.2153C43.7042 40.4601 43.6589 40.6637 43.5684 40.8345L43.5664 40.8365ZM49.2315 40.8242C49.1204 41.0751 48.9579 41.3035 48.746 41.5092C48.5341 41.7149 48.277 41.8897 47.9726 42.0358C47.6681 42.1818 47.3246 42.2806 46.9399 42.3341C46.5553 42.3875 46.2117 42.3834 45.9073 42.3217C45.6028 42.26 45.3457 42.1572 45.1338 42.009C44.922 41.8609 44.7615 41.6779 44.6504 41.4598C44.5393 41.2397 44.4838 40.997 44.4838 40.7316C44.4838 40.4663 44.5393 40.205 44.6504 39.952C44.7615 39.699 44.924 39.4665 45.1338 39.2567C45.3457 39.0469 45.6028 38.8679 45.9073 38.7198C46.2117 38.5717 46.5553 38.4709 46.9399 38.4174C47.3246 38.364 47.6681 38.3701 47.9726 38.436C48.277 38.5018 48.5341 38.6087 48.746 38.761C48.9579 38.9132 49.1204 39.0983 49.2315 39.3205C49.3426 39.5426 49.4002 39.7874 49.4002 40.0528C49.4002 40.3182 49.3446 40.5773 49.2315 40.8283V40.8242ZM54.8164 39.2403C54.7752 39.3678 54.7197 39.4789 54.6497 39.5735C54.5819 39.6702 54.5037 39.7525 54.4173 39.8203C54.3309 39.8882 54.2445 39.9438 54.156 39.989C54.4132 40.5074 54.5407 40.7666 54.7979 41.285C54.4029 41.324 54.2054 41.3426 53.8084 41.3837C53.5718 40.9065 53.4546 40.6679 53.2201 40.1906C52.4487 40.2729 52.062 40.314 51.2926 40.4045C51.2926 40.9065 51.2926 41.1574 51.2926 41.6593C50.9224 41.7025 50.7372 41.7231 50.369 41.7684C50.369 40.2976 50.369 39.5632 50.369 38.0924C51.6896 37.934 52.352 37.86 53.6747 37.7222C53.7734 37.7119 53.8907 37.718 54.0306 37.7386C54.1684 37.7592 54.3021 37.8086 54.4276 37.8847C54.5531 37.9608 54.66 38.0739 54.7485 38.22C54.8369 38.3681 54.8801 38.5635 54.8801 38.8083C54.8801 38.9687 54.8596 39.1127 54.8164 39.2403ZM58.3524 40.9702C57.9842 40.999 57.7991 41.0155 57.4309 41.0463C57.4309 39.8923 57.4309 39.3164 57.4309 38.1624C56.7685 38.2179 56.4353 38.2467 55.7729 38.3084C55.7729 37.9916 55.7729 37.8332 55.7729 37.5165C57.4679 37.3601 58.3154 37.2902 60.0125 37.1688C60.0125 37.4856 60.0125 37.644 60.0125 37.9608C59.348 38.0081 59.0169 38.0328 58.3524 38.0863C58.3524 39.2403 58.3524 39.8162 58.3524 40.9702ZM65.1571 39.8738C65.0584 40.0404 64.9082 40.1865 64.7025 40.3182C64.4989 40.4477 64.2438 40.5547 63.9373 40.639C63.6308 40.7234 63.2688 40.7769 62.8512 40.7995C62.6373 40.8118 62.4151 40.8057 62.1929 40.7851C62.0016 40.7686 61.7877 40.7378 61.5553 40.6925C61.3228 40.6473 61.0986 40.5773 60.8805 40.4786C61.0101 40.1762 61.0739 40.024 61.2014 39.7216C61.3948 39.8059 61.5882 39.8718 61.7836 39.9129C61.979 39.9561 62.1559 39.9849 62.3143 39.9993C62.4994 40.0158 62.6825 40.024 62.8512 40.0158C63.3737 39.9911 63.7707 39.9191 64.0299 39.8101C64.2891 39.7031 64.4166 39.5714 64.4166 39.4172C64.4166 39.3184 64.3755 39.2485 64.2952 39.2073C64.215 39.1662 64.0854 39.1497 63.9209 39.1477C63.8838 39.1477 63.8098 39.1456 63.7028 39.1477C63.5958 39.1477 63.4642 39.1477 63.3099 39.1497C63.1556 39.1497 62.9828 39.1539 62.7936 39.158C62.6044 39.1621 62.4069 39.1641 62.2032 39.1662C61.9996 39.1662 61.8124 39.1518 61.6416 39.1168C61.4709 39.0819 61.3228 39.0263 61.1994 38.9482C61.0739 38.87 60.9772 38.7712 60.9073 38.6519C60.8373 38.5326 60.8024 38.3886 60.8024 38.22C60.8024 38.0513 60.8579 37.8888 60.969 37.7345C61.0801 37.5782 61.2385 37.4383 61.4442 37.3149C61.6499 37.1914 61.8988 37.0886 62.1929 37.0084C62.4871 36.9281 62.8142 36.8767 63.1762 36.8561C63.3901 36.8438 63.6102 36.8479 63.8303 36.8685C64.0196 36.887 64.2315 36.9158 64.466 36.9569C64.7005 36.9981 64.9268 37.0639 65.1489 37.1565C65.0378 37.4506 64.9802 37.5987 64.8692 37.8949C64.7601 37.8538 64.6367 37.8168 64.5009 37.7818C64.3631 37.7468 64.2212 37.716 64.071 37.6934C63.9209 37.6687 63.7707 37.6522 63.6185 37.644C63.4662 37.6337 63.3181 37.6337 63.1783 37.6419C62.9664 37.6543 62.771 37.6748 62.5899 37.7036C62.4089 37.7324 62.2526 37.7715 62.1189 37.8188C61.9852 37.8661 61.8803 37.9196 61.8062 37.9793C61.7301 38.041 61.6931 38.1048 61.6931 38.1747C61.6931 38.2652 61.7322 38.331 61.8083 38.3722C61.8864 38.4133 61.9996 38.4318 62.1518 38.4298C62.3205 38.4277 62.557 38.4236 62.8635 38.4195C63.17 38.4154 63.5321 38.4113 63.9497 38.4072C64.1595 38.4072 64.3487 38.4257 64.5174 38.4627C64.684 38.4997 64.826 38.5573 64.9453 38.6375C65.0625 38.7157 65.153 38.8144 65.2168 38.9358C65.2806 39.0551 65.3114 39.195 65.3114 39.3513C65.3114 39.5344 65.2621 39.7072 65.1633 39.8718L65.1571 39.8738ZM73.7638 38.7445C73.8338 38.8371 73.8852 38.9276 73.9161 39.014C73.9531 39.1148 73.9778 39.2197 73.9798 39.3246C73.9819 39.5036 73.949 39.662 73.8852 39.7895C73.8214 39.917 73.7371 40.0219 73.6301 40.1042C73.5232 40.1865 73.3956 40.2482 73.2496 40.2873C73.1035 40.3264 72.9451 40.3469 72.7765 40.3469C71.3921 40.3572 70.6988 40.3675 69.3144 40.4004C69.3144 38.9296 69.3144 38.1953 69.3144 36.7245C70.6988 36.6916 71.3921 36.6792 72.7765 36.671C72.9534 36.671 73.1138 36.6895 73.2619 36.7286C73.41 36.7677 73.5355 36.8294 73.6425 36.9137C73.7474 36.9981 73.8297 37.105 73.8914 37.2367C73.951 37.3683 73.9839 37.5288 73.9819 37.7119C73.9819 37.823 73.9551 37.932 73.9181 38.0328C73.8852 38.1192 73.8358 38.2076 73.7659 38.2961C73.696 38.3845 73.5931 38.4565 73.4594 38.5121C73.5931 38.5738 73.696 38.6519 73.7659 38.7445H73.7638ZM75.9381 40.3511C75.5658 40.347 75.3807 40.347 75.0084 40.3449V36.6689C75.3807 36.6689 75.5658 36.671 75.9381 36.6751C75.9381 38.1459 75.9381 38.8803 75.9381 40.3511ZM81.2474 39.7977C81.1486 39.9561 80.9964 40.0919 80.7928 40.205C80.5891 40.3182 80.3341 40.4045 80.0276 40.4642C79.7211 40.5239 79.359 40.5465 78.9414 40.5362C78.7275 40.53 78.5053 40.5074 78.2811 40.4683C78.0877 40.4354 77.8738 40.3881 77.6434 40.3243C77.411 40.2606 77.1868 40.1721 76.9687 40.0569C77.0983 39.7648 77.1621 39.6188 77.2917 39.3267C77.485 39.4274 77.6805 39.5077 77.8738 39.5653C78.0692 39.6229 78.2461 39.6661 78.4045 39.6949C78.5897 39.7278 78.7727 39.7483 78.9435 39.7545C79.466 39.773 79.865 39.7319 80.1222 39.6455C80.3814 39.5591 80.511 39.4398 80.511 39.2855C80.511 39.1868 80.4698 39.1148 80.3896 39.0654C80.3094 39.0181 80.1798 38.9914 80.0152 38.9749C79.9782 38.9708 79.9041 38.9646 79.7951 38.9564C79.6881 38.9482 79.5565 38.9379 79.4022 38.9276C79.2479 38.9173 79.0751 38.905 78.8859 38.8926C78.6966 38.8803 78.4992 38.8679 78.2955 38.8535C78.0919 38.8391 77.9047 38.8062 77.7339 38.7589C77.5632 38.7095 77.4151 38.6417 77.2896 38.5553C77.1641 38.4668 77.0675 38.3619 76.9975 38.2364C76.9276 38.1109 76.8926 37.9649 76.8926 37.7962C76.8926 37.6275 76.9481 37.4712 77.0592 37.3231C77.1703 37.177 77.3287 37.0495 77.5344 36.9425C77.7401 36.8356 77.9911 36.7533 78.2832 36.6977C78.5753 36.6422 78.9044 36.6175 79.2664 36.6257C79.4804 36.6319 79.7005 36.6525 79.9206 36.6916C80.1098 36.7245 80.3217 36.7718 80.5562 36.8315C80.7907 36.8911 81.017 36.9754 81.2392 37.0865C81.1281 37.3725 81.0705 37.5144 80.9594 37.8003C80.8504 37.751 80.7269 37.7036 80.5912 37.6563C80.4534 37.609 80.3114 37.5679 80.1613 37.5329C80.0111 37.4959 79.8609 37.4671 79.7067 37.4465C79.5544 37.4239 79.4063 37.4115 79.2664 37.4074C79.0546 37.4013 78.8591 37.4074 78.6781 37.4218C78.4971 37.4362 78.3387 37.463 78.205 37.4979C78.0713 37.5329 77.9664 37.5782 77.8903 37.6337C77.8142 37.6892 77.7771 37.751 77.7771 37.8209C77.7771 37.9114 77.8162 37.9813 77.8923 38.0287C77.9705 38.076 78.0836 38.1048 78.2359 38.115C78.4045 38.1253 78.6432 38.1418 78.9476 38.1624C79.2541 38.1829 79.6182 38.2076 80.0358 38.2385C80.2456 38.2549 80.4369 38.2899 80.6035 38.3393C80.7701 38.3907 80.9121 38.4606 81.0314 38.5491C81.1486 38.6375 81.2392 38.7445 81.3029 38.8679C81.3667 38.9934 81.3975 39.1333 81.3975 39.2917C81.3975 39.4748 81.3482 39.6434 81.2494 39.8018L81.2474 39.7977ZM86.4311 37.8415C85.7667 37.8003 85.4355 37.7818 84.7711 37.7448C84.7711 38.8988 84.7711 39.4748 84.7711 40.6288C84.4029 40.6082 84.2178 40.6 83.8475 40.5815C83.8475 39.4274 83.8475 38.8515 83.8475 37.6975C83.1831 37.6646 82.8498 37.6502 82.1854 37.6234V36.8315C83.8845 36.9014 84.7341 36.9446 86.4311 37.0495V37.8415ZM91.8885 39.0963C91.8453 39.2156 91.7918 39.3164 91.7219 39.3986C91.654 39.483 91.5758 39.5488 91.4894 39.6023C91.403 39.6537 91.3166 39.6949 91.2282 39.7216C91.4853 40.2873 91.6128 40.5712 91.87 41.1389C91.475 41.1039 91.2755 41.0854 90.8805 41.0525C90.644 40.53 90.5267 40.2688 90.2902 39.7483C89.5167 39.6846 89.13 39.6558 88.3565 39.6002C88.3565 40.1022 88.3565 40.3531 88.3565 40.855C87.9863 40.8283 87.8011 40.816 87.4288 40.7913C87.4288 39.3205 87.4288 38.5861 87.4288 37.1153C88.7556 37.2038 89.418 37.2552 90.7427 37.3663C90.8415 37.3745 90.9587 37.4013 91.0986 37.4486C91.2364 37.4959 91.3701 37.5699 91.4956 37.6687C91.6211 37.7695 91.728 37.9011 91.8165 38.0657C91.905 38.2302 91.9481 38.4339 91.9481 38.6787C91.9481 38.8391 91.9276 38.979 91.8844 39.0983L91.8885 39.0963ZM97.5721 41.7313C95.7475 41.5154 94.8342 41.4166 93.0055 41.2418C93.0055 39.771 93.0055 39.0366 93.0055 37.5658C94.7786 37.7345 95.6652 37.8291 97.4364 38.0389V38.8309C96.0355 38.6663 95.3341 38.5882 93.9311 38.4483V39.1107C95.1654 39.2341 95.7825 39.302 97.0167 39.4439V40.1577C95.7825 40.0137 95.1654 39.9479 93.9311 39.8245V40.5383C95.3896 40.6843 96.1178 40.7645 97.5721 40.9373V41.7293V41.7313ZM102.669 42.404C102.499 42.0852 102.414 41.9268 102.246 41.6079C101.213 41.4598 100.695 41.3899 99.6621 41.2562C99.4913 41.5277 99.407 41.6635 99.2363 41.937C98.8434 41.8877 98.648 41.863 98.2551 41.8136C99.0984 40.4457 99.5201 39.7648 100.364 38.4072C100.835 38.4709 101.071 38.5018 101.542 38.5676C102.386 40.1556 102.805 40.9517 103.649 42.548C103.258 42.4883 103.06 42.4595 102.669 42.404ZM108.583 42.2703C108.483 42.4883 108.339 42.6714 108.149 42.8175C107.962 42.9635 107.734 43.0664 107.467 43.126C107.199 43.1857 106.897 43.1877 106.563 43.1322C106.228 43.0767 105.928 42.9759 105.658 42.8278C105.391 42.6796 105.161 42.5007 104.971 42.2929C104.782 42.0852 104.636 41.8548 104.535 41.6018C104.434 41.3508 104.383 41.0916 104.383 40.8242C104.383 40.0898 104.383 39.7216 104.383 38.9872C104.751 39.0448 104.936 39.0736 105.305 39.1312V40.9682C105.305 41.1266 105.329 41.2788 105.381 41.429C105.432 41.5791 105.508 41.7169 105.611 41.8404C105.714 41.9658 105.846 42.0728 106.004 42.1613C106.162 42.2497 106.35 42.3114 106.566 42.3485C106.782 42.3834 106.969 42.3834 107.125 42.3485C107.281 42.3114 107.411 42.2477 107.514 42.1572C107.617 42.0666 107.693 41.9535 107.744 41.8219C107.794 41.6881 107.82 41.5442 107.82 41.3858C107.82 40.6514 107.82 40.2832 107.82 39.5488C108.189 39.6126 108.372 39.6434 108.74 39.7093C108.74 40.4436 108.74 40.8118 108.74 41.5462C108.74 41.8116 108.688 42.0543 108.588 42.2723L108.583 42.2703ZM114.411 44.4713C113.922 44.3705 113.675 44.3191 113.185 44.2204C112.687 43.63 112.438 43.3338 111.941 42.7455C111.443 43.1404 111.194 43.3379 110.696 43.737C110.204 43.6444 109.958 43.5991 109.466 43.5107C110.211 42.91 110.583 42.6118 111.328 42.0173C110.583 41.141 110.213 40.7028 109.466 39.8347C109.958 39.9232 110.204 39.9685 110.696 40.061C111.194 40.6452 111.443 40.9394 111.941 41.5277C112.438 41.1327 112.687 40.9353 113.185 40.5444C113.677 40.6432 113.922 40.6925 114.411 40.7954C113.669 41.3775 113.298 41.6696 112.556 42.2579C113.298 43.1404 113.671 43.5827 114.411 44.4713Z" fill="#252159"></path>
    <path d="M100.119 40.5218C100.789 40.6103 101.125 40.6555 101.795 40.7501C101.46 40.1186 101.291 39.8039 100.956 39.1744C100.621 39.7134 100.452 39.9829 100.117 40.5218H100.119Z" fill="#252159"></path>
    <path d="M148.523 57.9545C146.963 57.9545 145.595 58.9145 145.595 60.5345C145.595 62.1545 146.963 63.1145 148.523 63.1145C150.083 63.1145 151.475 62.1545 151.475 60.5345C151.475 58.9145 150.083 57.9545 148.523 57.9545ZM148.535 62.7305C147.167 62.7305 146.027 61.9505 146.027 60.5345C146.027 59.1065 147.167 58.3385 148.535 58.3385C149.891 58.3385 151.043 59.1065 151.043 60.5345C151.043 61.9505 149.891 62.7305 148.535 62.7305ZM150.131 60.0545C150.131 59.4425 149.603 59.1425 148.907 59.1425H147.083V61.7825H147.935V60.9665H148.547L149.243 61.7825H150.203L149.435 60.8945C149.855 60.7745 150.131 60.4865 150.131 60.0545ZM147.935 59.7425H148.775C149.087 59.7425 149.255 59.8265 149.255 60.0785C149.255 60.3185 149.087 60.4025 148.775 60.4025H147.935V59.7425Z" fill="#252159"></path>
  </g>
  <defs>
    <clipPath id="clip0_892_58046">
      <rect width="148.422" height="60" fill="white"></rect>
    </clipPath>
  </defs>
</svg>
